<?xml version="1.0" encoding="utf-8" standalone="no"?>
<!DOCTYPE svg PUBLIC "-//W3C//DTD SVG 1.1//EN"
  "http://www.w3.org/Graphics/SVG/1.1/DTD/svg11.dtd">
<svg xmlns:xlink="http://www.w3.org/1999/xlink" width="697.557812pt" height="553.499219pt" viewBox="0 0 697.557812 553.499219" xmlns="http://www.w3.org/2000/svg" version="1.1">
 <metadata>
  <rdf:RDF xmlns:dc="http://purl.org/dc/elements/1.1/" xmlns:cc="http://creativecommons.org/ns#" xmlns:rdf="http://www.w3.org/1999/02/22-rdf-syntax-ns#">
   <cc:Work>
    <dc:type rdf:resource="http://purl.org/dc/dcmitype/StillImage"/>
    <dc:date>2026-01-04T19:14:17.826007</dc:date>
    <dc:format>image/svg+xml</dc:format>
    <dc:creator>
     <cc:Agent>
      <dc:title>Matplotlib v3.10.7, https://matplotlib.org/</dc:title>
     </cc:Agent>
    </dc:creator>
   </cc:Work>
  </rdf:RDF>
 </metadata>
 <defs>
  <style type="text/css">*{stroke-linejoin: round; stroke-linecap: butt}</style>
 </defs>
 <g id="figure_1">
  <g id="patch_1">
   <path d="M 0 553.499219 
L 697.557812 553.499219 
L 697.557812 0 
L 0 0 
z
" style="fill: #ffffff"/>
  </g>
  <g id="axes_1">
   <g id="patch_2">
    <path d="M 76.41 505.478594 
L 683.245 505.478594 
L 683.245 6.838594 
L 76.41 6.838594 
z
" style="fill: #ffffff"/>
   </g>
   <g id="matplotlib.axis_1">
    <g id="xtick_1">
     <g id="line2d_1">
      <path d="M 131.576818 505.478594 
L 131.576818 6.838594 
" clip-path="url(#pa5c93a8496)" style="fill: none; stroke-dasharray: 2.96,1.28; stroke-dashoffset: 0; stroke: #b0b0b0; stroke-opacity: 0.3; stroke-width: 0.8"/>
     </g>
     <g id="line2d_2">
      <defs>
       <path id="m72d09359e5" d="M 0 0 
L 0 3.5 
" style="stroke: #000000; stroke-width: 0.8"/>
      </defs>
      <g>
       <use xlink:href="#m72d09359e5" x="131.576818" y="505.478594" style="stroke: #000000; stroke-width: 0.8"/>
      </g>
     </g>
     <g id="text_1">
      <!-- 3.3 -->
      <g transform="translate(117.264006 526.155781) scale(0.18 -0.18)">
       <defs>
        <path id="DejaVuSans-33" d="M 2597 2516 
Q 3050 2419 3304 2112 
Q 3559 1806 3559 1356 
Q 3559 666 3084 287 
Q 2609 -91 1734 -91 
Q 1441 -91 1130 -33 
Q 819 25 488 141 
L 488 750 
Q 750 597 1062 519 
Q 1375 441 1716 441 
Q 2309 441 2620 675 
Q 2931 909 2931 1356 
Q 2931 1769 2642 2001 
Q 2353 2234 1838 2234 
L 1294 2234 
L 1294 2753 
L 1863 2753 
Q 2328 2753 2575 2939 
Q 2822 3125 2822 3475 
Q 2822 3834 2567 4026 
Q 2313 4219 1838 4219 
Q 1578 4219 1281 4162 
Q 984 4106 628 3988 
L 628 4550 
Q 988 4650 1302 4700 
Q 1616 4750 1894 4750 
Q 2613 4750 3031 4423 
Q 3450 4097 3450 3541 
Q 3450 3153 3228 2886 
Q 3006 2619 2597 2516 
z
" transform="scale(0.015625)"/>
        <path id="DejaVuSans-2e" d="M 684 794 
L 1344 794 
L 1344 0 
L 684 0 
L 684 794 
z
" transform="scale(0.015625)"/>
       </defs>
       <use xlink:href="#DejaVuSans-33"/>
       <use xlink:href="#DejaVuSans-2e" transform="translate(63.623047 0)"/>
       <use xlink:href="#DejaVuSans-33" transform="translate(95.410156 0)"/>
      </g>
     </g>
    </g>
    <g id="xtick_2">
     <g id="line2d_3">
      <path d="M 241.910455 505.478594 
L 241.910455 6.838594 
" clip-path="url(#pa5c93a8496)" style="fill: none; stroke-dasharray: 2.96,1.28; stroke-dashoffset: 0; stroke: #b0b0b0; stroke-opacity: 0.3; stroke-width: 0.8"/>
     </g>
     <g id="line2d_4">
      <g>
       <use xlink:href="#m72d09359e5" x="241.910455" y="505.478594" style="stroke: #000000; stroke-width: 0.8"/>
      </g>
     </g>
     <g id="text_2">
      <!-- 3.4 -->
      <g transform="translate(227.597642 526.155781) scale(0.18 -0.18)">
       <defs>
        <path id="DejaVuSans-34" d="M 2419 4116 
L 825 1625 
L 2419 1625 
L 2419 4116 
z
M 2253 4666 
L 3047 4666 
L 3047 1625 
L 3713 1625 
L 3713 1100 
L 3047 1100 
L 3047 0 
L 2419 0 
L 2419 1100 
L 313 1100 
L 313 1709 
L 2253 4666 
z
" transform="scale(0.015625)"/>
       </defs>
       <use xlink:href="#DejaVuSans-33"/>
       <use xlink:href="#DejaVuSans-2e" transform="translate(63.623047 0)"/>
       <use xlink:href="#DejaVuSans-34" transform="translate(95.410156 0)"/>
      </g>
     </g>
    </g>
    <g id="xtick_3">
     <g id="line2d_5">
      <path d="M 352.244091 505.478594 
L 352.244091 6.838594 
" clip-path="url(#pa5c93a8496)" style="fill: none; stroke-dasharray: 2.96,1.28; stroke-dashoffset: 0; stroke: #b0b0b0; stroke-opacity: 0.3; stroke-width: 0.8"/>
     </g>
     <g id="line2d_6">
      <g>
       <use xlink:href="#m72d09359e5" x="352.244091" y="505.478594" style="stroke: #000000; stroke-width: 0.8"/>
      </g>
     </g>
     <g id="text_3">
      <!-- 3.5 -->
      <g transform="translate(337.931278 526.155781) scale(0.18 -0.18)">
       <defs>
        <path id="DejaVuSans-35" d="M 691 4666 
L 3169 4666 
L 3169 4134 
L 1269 4134 
L 1269 2991 
Q 1406 3038 1543 3061 
Q 1681 3084 1819 3084 
Q 2600 3084 3056 2656 
Q 3513 2228 3513 1497 
Q 3513 744 3044 326 
Q 2575 -91 1722 -91 
Q 1428 -91 1123 -41 
Q 819 9 494 109 
L 494 744 
Q 775 591 1075 516 
Q 1375 441 1709 441 
Q 2250 441 2565 725 
Q 2881 1009 2881 1497 
Q 2881 1984 2565 2268 
Q 2250 2553 1709 2553 
Q 1456 2553 1204 2497 
Q 953 2441 691 2322 
L 691 4666 
z
" transform="scale(0.015625)"/>
       </defs>
       <use xlink:href="#DejaVuSans-33"/>
       <use xlink:href="#DejaVuSans-2e" transform="translate(63.623047 0)"/>
       <use xlink:href="#DejaVuSans-35" transform="translate(95.410156 0)"/>
      </g>
     </g>
    </g>
    <g id="xtick_4">
     <g id="line2d_7">
      <path d="M 462.577727 505.478594 
L 462.577727 6.838594 
" clip-path="url(#pa5c93a8496)" style="fill: none; stroke-dasharray: 2.96,1.28; stroke-dashoffset: 0; stroke: #b0b0b0; stroke-opacity: 0.3; stroke-width: 0.8"/>
     </g>
     <g id="line2d_8">
      <g>
       <use xlink:href="#m72d09359e5" x="462.577727" y="505.478594" style="stroke: #000000; stroke-width: 0.8"/>
      </g>
     </g>
     <g id="text_4">
      <!-- 3.6 -->
      <g transform="translate(448.264915 526.155781) scale(0.18 -0.18)">
       <defs>
        <path id="DejaVuSans-36" d="M 2113 2584 
Q 1688 2584 1439 2293 
Q 1191 2003 1191 1497 
Q 1191 994 1439 701 
Q 1688 409 2113 409 
Q 2538 409 2786 701 
Q 3034 994 3034 1497 
Q 3034 2003 2786 2293 
Q 2538 2584 2113 2584 
z
M 3366 4563 
L 3366 3988 
Q 3128 4100 2886 4159 
Q 2644 4219 2406 4219 
Q 1781 4219 1451 3797 
Q 1122 3375 1075 2522 
Q 1259 2794 1537 2939 
Q 1816 3084 2150 3084 
Q 2853 3084 3261 2657 
Q 3669 2231 3669 1497 
Q 3669 778 3244 343 
Q 2819 -91 2113 -91 
Q 1303 -91 875 529 
Q 447 1150 447 2328 
Q 447 3434 972 4092 
Q 1497 4750 2381 4750 
Q 2619 4750 2861 4703 
Q 3103 4656 3366 4563 
z
" transform="scale(0.015625)"/>
       </defs>
       <use xlink:href="#DejaVuSans-33"/>
       <use xlink:href="#DejaVuSans-2e" transform="translate(63.623047 0)"/>
       <use xlink:href="#DejaVuSans-36" transform="translate(95.410156 0)"/>
      </g>
     </g>
    </g>
    <g id="xtick_5">
     <g id="line2d_9">
      <path d="M 572.911364 505.478594 
L 572.911364 6.838594 
" clip-path="url(#pa5c93a8496)" style="fill: none; stroke-dasharray: 2.96,1.28; stroke-dashoffset: 0; stroke: #b0b0b0; stroke-opacity: 0.3; stroke-width: 0.8"/>
     </g>
     <g id="line2d_10">
      <g>
       <use xlink:href="#m72d09359e5" x="572.911364" y="505.478594" style="stroke: #000000; stroke-width: 0.8"/>
      </g>
     </g>
     <g id="text_5">
      <!-- 3.7 -->
      <g transform="translate(558.598551 526.155781) scale(0.18 -0.18)">
       <defs>
        <path id="DejaVuSans-37" d="M 525 4666 
L 3525 4666 
L 3525 4397 
L 1831 0 
L 1172 0 
L 2766 4134 
L 525 4134 
L 525 4666 
z
" transform="scale(0.015625)"/>
       </defs>
       <use xlink:href="#DejaVuSans-33"/>
       <use xlink:href="#DejaVuSans-2e" transform="translate(63.623047 0)"/>
       <use xlink:href="#DejaVuSans-37" transform="translate(95.410156 0)"/>
      </g>
     </g>
    </g>
    <g id="xtick_6">
     <g id="line2d_11">
      <path d="M 683.245 505.478594 
L 683.245 6.838594 
" clip-path="url(#pa5c93a8496)" style="fill: none; stroke-dasharray: 2.96,1.28; stroke-dashoffset: 0; stroke: #b0b0b0; stroke-opacity: 0.3; stroke-width: 0.8"/>
     </g>
     <g id="line2d_12">
      <g>
       <use xlink:href="#m72d09359e5" x="683.245" y="505.478594" style="stroke: #000000; stroke-width: 0.8"/>
      </g>
     </g>
     <g id="text_6">
      <!-- 3.8 -->
      <g transform="translate(668.932187 526.155781) scale(0.18 -0.18)">
       <defs>
        <path id="DejaVuSans-38" d="M 2034 2216 
Q 1584 2216 1326 1975 
Q 1069 1734 1069 1313 
Q 1069 891 1326 650 
Q 1584 409 2034 409 
Q 2484 409 2743 651 
Q 3003 894 3003 1313 
Q 3003 1734 2745 1975 
Q 2488 2216 2034 2216 
z
M 1403 2484 
Q 997 2584 770 2862 
Q 544 3141 544 3541 
Q 544 4100 942 4425 
Q 1341 4750 2034 4750 
Q 2731 4750 3128 4425 
Q 3525 4100 3525 3541 
Q 3525 3141 3298 2862 
Q 3072 2584 2669 2484 
Q 3125 2378 3379 2068 
Q 3634 1759 3634 1313 
Q 3634 634 3220 271 
Q 2806 -91 2034 -91 
Q 1263 -91 848 271 
Q 434 634 434 1313 
Q 434 1759 690 2068 
Q 947 2378 1403 2484 
z
M 1172 3481 
Q 1172 3119 1398 2916 
Q 1625 2713 2034 2713 
Q 2441 2713 2670 2916 
Q 2900 3119 2900 3481 
Q 2900 3844 2670 4047 
Q 2441 4250 2034 4250 
Q 1625 4250 1398 4047 
Q 1172 3844 1172 3481 
z
" transform="scale(0.015625)"/>
       </defs>
       <use xlink:href="#DejaVuSans-33"/>
       <use xlink:href="#DejaVuSans-2e" transform="translate(63.623047 0)"/>
       <use xlink:href="#DejaVuSans-38" transform="translate(95.410156 0)"/>
      </g>
     </g>
    </g>
    <g id="text_7">
     <!-- Average Compression Ratio $\uparrow$ -->
     <g transform="translate(208.0275 549.099219) scale(0.2 -0.2)">
      <defs>
       <path id="DejaVuSans-Bold-41" d="M 3419 850 
L 1538 850 
L 1241 0 
L 31 0 
L 1759 4666 
L 3194 4666 
L 4922 0 
L 3713 0 
L 3419 850 
z
M 1838 1716 
L 3116 1716 
L 2478 3572 
L 1838 1716 
z
" transform="scale(0.015625)"/>
       <path id="DejaVuSans-Bold-76" d="M 97 3500 
L 1216 3500 
L 2088 1081 
L 2956 3500 
L 4078 3500 
L 2700 0 
L 1472 0 
L 97 3500 
z
" transform="scale(0.015625)"/>
       <path id="DejaVuSans-Bold-65" d="M 4031 1759 
L 4031 1441 
L 1416 1441 
Q 1456 1047 1700 850 
Q 1944 653 2381 653 
Q 2734 653 3104 758 
Q 3475 863 3866 1075 
L 3866 213 
Q 3469 63 3072 -14 
Q 2675 -91 2278 -91 
Q 1328 -91 801 392 
Q 275 875 275 1747 
Q 275 2603 792 3093 
Q 1309 3584 2216 3584 
Q 3041 3584 3536 3087 
Q 4031 2591 4031 1759 
z
M 2881 2131 
Q 2881 2450 2695 2645 
Q 2509 2841 2209 2841 
Q 1884 2841 1681 2658 
Q 1478 2475 1428 2131 
L 2881 2131 
z
" transform="scale(0.015625)"/>
       <path id="DejaVuSans-Bold-72" d="M 3138 2547 
Q 2991 2616 2845 2648 
Q 2700 2681 2553 2681 
Q 2122 2681 1889 2404 
Q 1656 2128 1656 1613 
L 1656 0 
L 538 0 
L 538 3500 
L 1656 3500 
L 1656 2925 
Q 1872 3269 2151 3426 
Q 2431 3584 2822 3584 
Q 2878 3584 2943 3579 
Q 3009 3575 3134 3559 
L 3138 2547 
z
" transform="scale(0.015625)"/>
       <path id="DejaVuSans-Bold-61" d="M 2106 1575 
Q 1756 1575 1579 1456 
Q 1403 1338 1403 1106 
Q 1403 894 1545 773 
Q 1688 653 1941 653 
Q 2256 653 2472 879 
Q 2688 1106 2688 1447 
L 2688 1575 
L 2106 1575 
z
M 3816 1997 
L 3816 0 
L 2688 0 
L 2688 519 
Q 2463 200 2181 54 
Q 1900 -91 1497 -91 
Q 953 -91 614 226 
Q 275 544 275 1050 
Q 275 1666 698 1953 
Q 1122 2241 2028 2241 
L 2688 2241 
L 2688 2328 
Q 2688 2594 2478 2717 
Q 2269 2841 1825 2841 
Q 1466 2841 1156 2769 
Q 847 2697 581 2553 
L 581 3406 
Q 941 3494 1303 3539 
Q 1666 3584 2028 3584 
Q 2975 3584 3395 3211 
Q 3816 2838 3816 1997 
z
" transform="scale(0.015625)"/>
       <path id="DejaVuSans-Bold-67" d="M 2919 594 
Q 2688 288 2409 144 
Q 2131 0 1766 0 
Q 1125 0 706 504 
Q 288 1009 288 1791 
Q 288 2575 706 3076 
Q 1125 3578 1766 3578 
Q 2131 3578 2409 3434 
Q 2688 3291 2919 2981 
L 2919 3500 
L 4044 3500 
L 4044 353 
Q 4044 -491 3511 -936 
Q 2978 -1381 1966 -1381 
Q 1638 -1381 1331 -1331 
Q 1025 -1281 716 -1178 
L 716 -306 
Q 1009 -475 1290 -558 
Q 1572 -641 1856 -641 
Q 2406 -641 2662 -400 
Q 2919 -159 2919 353 
L 2919 594 
z
M 2181 2772 
Q 1834 2772 1640 2515 
Q 1447 2259 1447 1791 
Q 1447 1309 1634 1061 
Q 1822 813 2181 813 
Q 2531 813 2725 1069 
Q 2919 1325 2919 1791 
Q 2919 2259 2725 2515 
Q 2531 2772 2181 2772 
z
" transform="scale(0.015625)"/>
       <path id="DejaVuSans-Bold-20" transform="scale(0.015625)"/>
       <path id="DejaVuSans-Bold-43" d="M 4288 256 
Q 3956 84 3597 -3 
Q 3238 -91 2847 -91 
Q 1681 -91 1000 561 
Q 319 1213 319 2328 
Q 319 3447 1000 4098 
Q 1681 4750 2847 4750 
Q 3238 4750 3597 4662 
Q 3956 4575 4288 4403 
L 4288 3438 
Q 3953 3666 3628 3772 
Q 3303 3878 2944 3878 
Q 2300 3878 1931 3465 
Q 1563 3053 1563 2328 
Q 1563 1606 1931 1193 
Q 2300 781 2944 781 
Q 3303 781 3628 887 
Q 3953 994 4288 1222 
L 4288 256 
z
" transform="scale(0.015625)"/>
       <path id="DejaVuSans-Bold-6f" d="M 2203 2784 
Q 1831 2784 1636 2517 
Q 1441 2250 1441 1747 
Q 1441 1244 1636 976 
Q 1831 709 2203 709 
Q 2569 709 2762 976 
Q 2956 1244 2956 1747 
Q 2956 2250 2762 2517 
Q 2569 2784 2203 2784 
z
M 2203 3584 
Q 3106 3584 3614 3096 
Q 4122 2609 4122 1747 
Q 4122 884 3614 396 
Q 3106 -91 2203 -91 
Q 1297 -91 786 396 
Q 275 884 275 1747 
Q 275 2609 786 3096 
Q 1297 3584 2203 3584 
z
" transform="scale(0.015625)"/>
       <path id="DejaVuSans-Bold-6d" d="M 3781 2919 
Q 3994 3244 4286 3414 
Q 4578 3584 4928 3584 
Q 5531 3584 5847 3212 
Q 6163 2841 6163 2131 
L 6163 0 
L 5038 0 
L 5038 1825 
Q 5041 1866 5042 1909 
Q 5044 1953 5044 2034 
Q 5044 2406 4934 2573 
Q 4825 2741 4581 2741 
Q 4263 2741 4089 2478 
Q 3916 2216 3909 1719 
L 3909 0 
L 2784 0 
L 2784 1825 
Q 2784 2406 2684 2573 
Q 2584 2741 2328 2741 
Q 2006 2741 1831 2477 
Q 1656 2213 1656 1722 
L 1656 0 
L 531 0 
L 531 3500 
L 1656 3500 
L 1656 2988 
Q 1863 3284 2130 3434 
Q 2397 3584 2719 3584 
Q 3081 3584 3359 3409 
Q 3638 3234 3781 2919 
z
" transform="scale(0.015625)"/>
       <path id="DejaVuSans-Bold-70" d="M 1656 506 
L 1656 -1331 
L 538 -1331 
L 538 3500 
L 1656 3500 
L 1656 2988 
Q 1888 3294 2169 3439 
Q 2450 3584 2816 3584 
Q 3463 3584 3878 3070 
Q 4294 2556 4294 1747 
Q 4294 938 3878 423 
Q 3463 -91 2816 -91 
Q 2450 -91 2169 54 
Q 1888 200 1656 506 
z
M 2400 2772 
Q 2041 2772 1848 2508 
Q 1656 2244 1656 1747 
Q 1656 1250 1848 986 
Q 2041 722 2400 722 
Q 2759 722 2948 984 
Q 3138 1247 3138 1747 
Q 3138 2247 2948 2509 
Q 2759 2772 2400 2772 
z
" transform="scale(0.015625)"/>
       <path id="DejaVuSans-Bold-73" d="M 3272 3391 
L 3272 2541 
Q 2913 2691 2578 2766 
Q 2244 2841 1947 2841 
Q 1628 2841 1473 2761 
Q 1319 2681 1319 2516 
Q 1319 2381 1436 2309 
Q 1553 2238 1856 2203 
L 2053 2175 
Q 2913 2066 3209 1816 
Q 3506 1566 3506 1031 
Q 3506 472 3093 190 
Q 2681 -91 1863 -91 
Q 1516 -91 1145 -36 
Q 775 19 384 128 
L 384 978 
Q 719 816 1070 734 
Q 1422 653 1784 653 
Q 2113 653 2278 743 
Q 2444 834 2444 1013 
Q 2444 1163 2330 1236 
Q 2216 1309 1875 1350 
L 1678 1375 
Q 931 1469 631 1722 
Q 331 1975 331 2491 
Q 331 3047 712 3315 
Q 1094 3584 1881 3584 
Q 2191 3584 2531 3537 
Q 2872 3491 3272 3391 
z
" transform="scale(0.015625)"/>
       <path id="DejaVuSans-Bold-69" d="M 538 3500 
L 1656 3500 
L 1656 0 
L 538 0 
L 538 3500 
z
M 538 4863 
L 1656 4863 
L 1656 3950 
L 538 3950 
L 538 4863 
z
" transform="scale(0.015625)"/>
       <path id="DejaVuSans-Bold-6e" d="M 4056 2131 
L 4056 0 
L 2931 0 
L 2931 347 
L 2931 1631 
Q 2931 2084 2911 2256 
Q 2891 2428 2841 2509 
Q 2775 2619 2662 2680 
Q 2550 2741 2406 2741 
Q 2056 2741 1856 2470 
Q 1656 2200 1656 1722 
L 1656 0 
L 538 0 
L 538 3500 
L 1656 3500 
L 1656 2988 
Q 1909 3294 2193 3439 
Q 2478 3584 2822 3584 
Q 3428 3584 3742 3212 
Q 4056 2841 4056 2131 
z
" transform="scale(0.015625)"/>
       <path id="DejaVuSans-Bold-52" d="M 2297 2597 
Q 2675 2597 2839 2737 
Q 3003 2878 3003 3200 
Q 3003 3519 2839 3656 
Q 2675 3794 2297 3794 
L 1791 3794 
L 1791 2597 
L 2297 2597 
z
M 1791 1766 
L 1791 0 
L 588 0 
L 588 4666 
L 2425 4666 
Q 3347 4666 3776 4356 
Q 4206 4047 4206 3378 
Q 4206 2916 3982 2619 
Q 3759 2322 3309 2181 
Q 3556 2125 3751 1926 
Q 3947 1728 4147 1325 
L 4800 0 
L 3519 0 
L 2950 1159 
Q 2778 1509 2601 1637 
Q 2425 1766 2131 1766 
L 1791 1766 
z
" transform="scale(0.015625)"/>
       <path id="DejaVuSans-Bold-74" d="M 1759 4494 
L 1759 3500 
L 2913 3500 
L 2913 2700 
L 1759 2700 
L 1759 1216 
Q 1759 972 1856 886 
Q 1953 800 2241 800 
L 2816 800 
L 2816 0 
L 1856 0 
Q 1194 0 917 276 
Q 641 553 641 1216 
L 641 2700 
L 84 2700 
L 84 3500 
L 641 3500 
L 641 4494 
L 1759 4494 
z
" transform="scale(0.015625)"/>
       <path id="DejaVuSans-2191" d="M 2541 4688 
L 2822 4688 
L 4047 3456 
L 3672 3081 
L 2947 3813 
L 2947 0 
L 2416 0 
L 2416 3813 
L 1684 3081 
L 1309 3456 
L 2541 4688 
z
" transform="scale(0.015625)"/>
      </defs>
      <use xlink:href="#DejaVuSans-Bold-41" transform="translate(0 0.015625)"/>
      <use xlink:href="#DejaVuSans-Bold-76" transform="translate(77.392578 0.015625)"/>
      <use xlink:href="#DejaVuSans-Bold-65" transform="translate(142.578125 0.015625)"/>
      <use xlink:href="#DejaVuSans-Bold-72" transform="translate(210.400391 0.015625)"/>
      <use xlink:href="#DejaVuSans-Bold-61" transform="translate(259.716797 0.015625)"/>
      <use xlink:href="#DejaVuSans-Bold-67" transform="translate(327.197266 0.015625)"/>
      <use xlink:href="#DejaVuSans-Bold-65" transform="translate(398.779297 0.015625)"/>
      <use xlink:href="#DejaVuSans-Bold-20" transform="translate(466.601562 0.015625)"/>
      <use xlink:href="#DejaVuSans-Bold-43" transform="translate(501.416016 0.015625)"/>
      <use xlink:href="#DejaVuSans-Bold-6f" transform="translate(574.804688 0.015625)"/>
      <use xlink:href="#DejaVuSans-Bold-6d" transform="translate(643.505859 0.015625)"/>
      <use xlink:href="#DejaVuSans-Bold-70" transform="translate(747.705078 0.015625)"/>
      <use xlink:href="#DejaVuSans-Bold-72" transform="translate(819.287109 0.015625)"/>
      <use xlink:href="#DejaVuSans-Bold-65" transform="translate(868.603516 0.015625)"/>
      <use xlink:href="#DejaVuSans-Bold-73" transform="translate(936.425781 0.015625)"/>
      <use xlink:href="#DejaVuSans-Bold-73" transform="translate(995.947266 0.015625)"/>
      <use xlink:href="#DejaVuSans-Bold-69" transform="translate(1055.46875 0.015625)"/>
      <use xlink:href="#DejaVuSans-Bold-6f" transform="translate(1089.746094 0.015625)"/>
      <use xlink:href="#DejaVuSans-Bold-6e" transform="translate(1158.447266 0.015625)"/>
      <use xlink:href="#DejaVuSans-Bold-20" transform="translate(1229.638672 0.015625)"/>
      <use xlink:href="#DejaVuSans-Bold-52" transform="translate(1264.453125 0.015625)"/>
      <use xlink:href="#DejaVuSans-Bold-61" transform="translate(1341.455078 0.015625)"/>
      <use xlink:href="#DejaVuSans-Bold-74" transform="translate(1408.935547 0.015625)"/>
      <use xlink:href="#DejaVuSans-Bold-69" transform="translate(1456.738281 0.015625)"/>
      <use xlink:href="#DejaVuSans-Bold-6f" transform="translate(1491.015625 0.015625)"/>
      <use xlink:href="#DejaVuSans-Bold-20" transform="translate(1559.716797 0.015625)"/>
      <use xlink:href="#DejaVuSans-2191" transform="translate(1614.013672 0.015625)"/>
     </g>
    </g>
   </g>
   <g id="matplotlib.axis_2">
    <g id="ytick_1">
     <g id="line2d_13">
      <path d="M 76.41 505.478594 
L 683.245 505.478594 
" clip-path="url(#pa5c93a8496)" style="fill: none; stroke-dasharray: 2.96,1.28; stroke-dashoffset: 0; stroke: #b0b0b0; stroke-opacity: 0.3; stroke-width: 0.8"/>
     </g>
     <g id="line2d_14">
      <defs>
       <path id="m14716a3c57" d="M 0 0 
L -3.5 0 
" style="stroke: #000000; stroke-width: 0.8"/>
      </defs>
      <g>
       <use xlink:href="#m14716a3c57" x="76.41" y="505.478594" style="stroke: #000000; stroke-width: 0.8"/>
      </g>
     </g>
    </g>
    <g id="ytick_2">
     <g id="line2d_15">
      <path d="M 76.41 443.148594 
L 683.245 443.148594 
" clip-path="url(#pa5c93a8496)" style="fill: none; stroke-dasharray: 2.96,1.28; stroke-dashoffset: 0; stroke: #b0b0b0; stroke-opacity: 0.3; stroke-width: 0.8"/>
     </g>
     <g id="line2d_16">
      <g>
       <use xlink:href="#m14716a3c57" x="76.41" y="443.148594" style="stroke: #000000; stroke-width: 0.8"/>
      </g>
     </g>
     <g id="text_8">
      <!-- 1000 -->
      <g transform="translate(23.6 449.987187) scale(0.18 -0.18)">
       <defs>
        <path id="DejaVuSans-31" d="M 794 531 
L 1825 531 
L 1825 4091 
L 703 3866 
L 703 4441 
L 1819 4666 
L 2450 4666 
L 2450 531 
L 3481 531 
L 3481 0 
L 794 0 
L 794 531 
z
" transform="scale(0.015625)"/>
        <path id="DejaVuSans-30" d="M 2034 4250 
Q 1547 4250 1301 3770 
Q 1056 3291 1056 2328 
Q 1056 1369 1301 889 
Q 1547 409 2034 409 
Q 2525 409 2770 889 
Q 3016 1369 3016 2328 
Q 3016 3291 2770 3770 
Q 2525 4250 2034 4250 
z
M 2034 4750 
Q 2819 4750 3233 4129 
Q 3647 3509 3647 2328 
Q 3647 1150 3233 529 
Q 2819 -91 2034 -91 
Q 1250 -91 836 529 
Q 422 1150 422 2328 
Q 422 3509 836 4129 
Q 1250 4750 2034 4750 
z
" transform="scale(0.015625)"/>
       </defs>
       <use xlink:href="#DejaVuSans-31"/>
       <use xlink:href="#DejaVuSans-30" transform="translate(63.623047 0)"/>
       <use xlink:href="#DejaVuSans-30" transform="translate(127.246094 0)"/>
       <use xlink:href="#DejaVuSans-30" transform="translate(190.869141 0)"/>
      </g>
     </g>
    </g>
    <g id="ytick_3">
     <g id="line2d_17">
      <path d="M 76.41 380.818594 
L 683.245 380.818594 
" clip-path="url(#pa5c93a8496)" style="fill: none; stroke-dasharray: 2.96,1.28; stroke-dashoffset: 0; stroke: #b0b0b0; stroke-opacity: 0.3; stroke-width: 0.8"/>
     </g>
     <g id="line2d_18">
      <g>
       <use xlink:href="#m14716a3c57" x="76.41" y="380.818594" style="stroke: #000000; stroke-width: 0.8"/>
      </g>
     </g>
     <g id="text_9">
      <!-- 1500 -->
      <g transform="translate(23.6 387.657187) scale(0.18 -0.18)">
       <use xlink:href="#DejaVuSans-31"/>
       <use xlink:href="#DejaVuSans-35" transform="translate(63.623047 0)"/>
       <use xlink:href="#DejaVuSans-30" transform="translate(127.246094 0)"/>
       <use xlink:href="#DejaVuSans-30" transform="translate(190.869141 0)"/>
      </g>
     </g>
    </g>
    <g id="ytick_4">
     <g id="line2d_19">
      <path d="M 76.41 318.488594 
L 683.245 318.488594 
" clip-path="url(#pa5c93a8496)" style="fill: none; stroke-dasharray: 2.96,1.28; stroke-dashoffset: 0; stroke: #b0b0b0; stroke-opacity: 0.3; stroke-width: 0.8"/>
     </g>
     <g id="line2d_20">
      <g>
       <use xlink:href="#m14716a3c57" x="76.41" y="318.488594" style="stroke: #000000; stroke-width: 0.8"/>
      </g>
     </g>
     <g id="text_10">
      <!-- 2000 -->
      <g transform="translate(23.6 325.327187) scale(0.18 -0.18)">
       <defs>
        <path id="DejaVuSans-32" d="M 1228 531 
L 3431 531 
L 3431 0 
L 469 0 
L 469 531 
Q 828 903 1448 1529 
Q 2069 2156 2228 2338 
Q 2531 2678 2651 2914 
Q 2772 3150 2772 3378 
Q 2772 3750 2511 3984 
Q 2250 4219 1831 4219 
Q 1534 4219 1204 4116 
Q 875 4013 500 3803 
L 500 4441 
Q 881 4594 1212 4672 
Q 1544 4750 1819 4750 
Q 2544 4750 2975 4387 
Q 3406 4025 3406 3419 
Q 3406 3131 3298 2873 
Q 3191 2616 2906 2266 
Q 2828 2175 2409 1742 
Q 1991 1309 1228 531 
z
" transform="scale(0.015625)"/>
       </defs>
       <use xlink:href="#DejaVuSans-32"/>
       <use xlink:href="#DejaVuSans-30" transform="translate(63.623047 0)"/>
       <use xlink:href="#DejaVuSans-30" transform="translate(127.246094 0)"/>
       <use xlink:href="#DejaVuSans-30" transform="translate(190.869141 0)"/>
      </g>
     </g>
    </g>
    <g id="ytick_5">
     <g id="line2d_21">
      <path d="M 76.41 256.158594 
L 683.245 256.158594 
" clip-path="url(#pa5c93a8496)" style="fill: none; stroke-dasharray: 2.96,1.28; stroke-dashoffset: 0; stroke: #b0b0b0; stroke-opacity: 0.3; stroke-width: 0.8"/>
     </g>
     <g id="line2d_22">
      <g>
       <use xlink:href="#m14716a3c57" x="76.41" y="256.158594" style="stroke: #000000; stroke-width: 0.8"/>
      </g>
     </g>
     <g id="text_11">
      <!-- 2500 -->
      <g transform="translate(23.6 262.997187) scale(0.18 -0.18)">
       <use xlink:href="#DejaVuSans-32"/>
       <use xlink:href="#DejaVuSans-35" transform="translate(63.623047 0)"/>
       <use xlink:href="#DejaVuSans-30" transform="translate(127.246094 0)"/>
       <use xlink:href="#DejaVuSans-30" transform="translate(190.869141 0)"/>
      </g>
     </g>
    </g>
    <g id="ytick_6">
     <g id="line2d_23">
      <path d="M 76.41 193.828594 
L 683.245 193.828594 
" clip-path="url(#pa5c93a8496)" style="fill: none; stroke-dasharray: 2.96,1.28; stroke-dashoffset: 0; stroke: #b0b0b0; stroke-opacity: 0.3; stroke-width: 0.8"/>
     </g>
     <g id="line2d_24">
      <g>
       <use xlink:href="#m14716a3c57" x="76.41" y="193.828594" style="stroke: #000000; stroke-width: 0.8"/>
      </g>
     </g>
     <g id="text_12">
      <!-- 3000 -->
      <g transform="translate(23.6 200.667187) scale(0.18 -0.18)">
       <use xlink:href="#DejaVuSans-33"/>
       <use xlink:href="#DejaVuSans-30" transform="translate(63.623047 0)"/>
       <use xlink:href="#DejaVuSans-30" transform="translate(127.246094 0)"/>
       <use xlink:href="#DejaVuSans-30" transform="translate(190.869141 0)"/>
      </g>
     </g>
    </g>
    <g id="ytick_7">
     <g id="line2d_25">
      <path d="M 76.41 131.498594 
L 683.245 131.498594 
" clip-path="url(#pa5c93a8496)" style="fill: none; stroke-dasharray: 2.96,1.28; stroke-dashoffset: 0; stroke: #b0b0b0; stroke-opacity: 0.3; stroke-width: 0.8"/>
     </g>
     <g id="line2d_26">
      <g>
       <use xlink:href="#m14716a3c57" x="76.41" y="131.498594" style="stroke: #000000; stroke-width: 0.8"/>
      </g>
     </g>
     <g id="text_13">
      <!-- 3500 -->
      <g transform="translate(23.6 138.337187) scale(0.18 -0.18)">
       <use xlink:href="#DejaVuSans-33"/>
       <use xlink:href="#DejaVuSans-35" transform="translate(63.623047 0)"/>
       <use xlink:href="#DejaVuSans-30" transform="translate(127.246094 0)"/>
       <use xlink:href="#DejaVuSans-30" transform="translate(190.869141 0)"/>
      </g>
     </g>
    </g>
    <g id="ytick_8">
     <g id="line2d_27">
      <path d="M 76.41 69.168594 
L 683.245 69.168594 
" clip-path="url(#pa5c93a8496)" style="fill: none; stroke-dasharray: 2.96,1.28; stroke-dashoffset: 0; stroke: #b0b0b0; stroke-opacity: 0.3; stroke-width: 0.8"/>
     </g>
     <g id="line2d_28">
      <g>
       <use xlink:href="#m14716a3c57" x="76.41" y="69.168594" style="stroke: #000000; stroke-width: 0.8"/>
      </g>
     </g>
     <g id="text_14">
      <!-- 4000 -->
      <g transform="translate(23.6 76.007187) scale(0.18 -0.18)">
       <use xlink:href="#DejaVuSans-34"/>
       <use xlink:href="#DejaVuSans-30" transform="translate(63.623047 0)"/>
       <use xlink:href="#DejaVuSans-30" transform="translate(127.246094 0)"/>
       <use xlink:href="#DejaVuSans-30" transform="translate(190.869141 0)"/>
      </g>
     </g>
    </g>
    <g id="ytick_9">
     <g id="line2d_29">
      <path d="M 76.41 6.838594 
L 683.245 6.838594 
" clip-path="url(#pa5c93a8496)" style="fill: none; stroke-dasharray: 2.96,1.28; stroke-dashoffset: 0; stroke: #b0b0b0; stroke-opacity: 0.3; stroke-width: 0.8"/>
     </g>
     <g id="line2d_30">
      <g>
       <use xlink:href="#m14716a3c57" x="76.41" y="6.838594" style="stroke: #000000; stroke-width: 0.8"/>
      </g>
     </g>
     <g id="text_15">
      <!-- 4500 -->
      <g transform="translate(23.6 13.677187) scale(0.18 -0.18)">
       <use xlink:href="#DejaVuSans-34"/>
       <use xlink:href="#DejaVuSans-35" transform="translate(63.623047 0)"/>
       <use xlink:href="#DejaVuSans-30" transform="translate(127.246094 0)"/>
       <use xlink:href="#DejaVuSans-30" transform="translate(190.869141 0)"/>
      </g>
     </g>
    </g>
    <g id="text_16">
     <!-- Throughput (KB/min) $\uparrow$ -->
     <g transform="translate(15.2 390.758594) rotate(-90) scale(0.2 -0.2)">
      <defs>
       <path id="DejaVuSans-Bold-54" d="M 31 4666 
L 4331 4666 
L 4331 3756 
L 2784 3756 
L 2784 0 
L 1581 0 
L 1581 3756 
L 31 3756 
L 31 4666 
z
" transform="scale(0.015625)"/>
       <path id="DejaVuSans-Bold-68" d="M 4056 2131 
L 4056 0 
L 2931 0 
L 2931 347 
L 2931 1625 
Q 2931 2084 2911 2256 
Q 2891 2428 2841 2509 
Q 2775 2619 2662 2680 
Q 2550 2741 2406 2741 
Q 2056 2741 1856 2470 
Q 1656 2200 1656 1722 
L 1656 0 
L 538 0 
L 538 4863 
L 1656 4863 
L 1656 2988 
Q 1909 3294 2193 3439 
Q 2478 3584 2822 3584 
Q 3428 3584 3742 3212 
Q 4056 2841 4056 2131 
z
" transform="scale(0.015625)"/>
       <path id="DejaVuSans-Bold-75" d="M 500 1363 
L 500 3500 
L 1625 3500 
L 1625 3150 
Q 1625 2866 1622 2436 
Q 1619 2006 1619 1863 
Q 1619 1441 1641 1255 
Q 1663 1069 1716 984 
Q 1784 875 1895 815 
Q 2006 756 2150 756 
Q 2500 756 2700 1025 
Q 2900 1294 2900 1772 
L 2900 3500 
L 4019 3500 
L 4019 0 
L 2900 0 
L 2900 506 
Q 2647 200 2364 54 
Q 2081 -91 1741 -91 
Q 1134 -91 817 281 
Q 500 653 500 1363 
z
" transform="scale(0.015625)"/>
       <path id="DejaVuSans-Bold-28" d="M 2413 -844 
L 1484 -844 
Q 1006 -72 778 623 
Q 550 1319 550 2003 
Q 550 2688 779 3389 
Q 1009 4091 1484 4856 
L 2413 4856 
Q 2013 4116 1813 3408 
Q 1613 2700 1613 2009 
Q 1613 1319 1811 609 
Q 2009 -100 2413 -844 
z
" transform="scale(0.015625)"/>
       <path id="DejaVuSans-Bold-4b" d="M 588 4666 
L 1791 4666 
L 1791 2963 
L 3525 4666 
L 4922 4666 
L 2675 2456 
L 5153 0 
L 3647 0 
L 1791 1838 
L 1791 0 
L 588 0 
L 588 4666 
z
" transform="scale(0.015625)"/>
       <path id="DejaVuSans-Bold-42" d="M 2456 2859 
Q 2741 2859 2887 2984 
Q 3034 3109 3034 3353 
Q 3034 3594 2887 3720 
Q 2741 3847 2456 3847 
L 1791 3847 
L 1791 2859 
L 2456 2859 
z
M 2497 819 
Q 2859 819 3042 972 
Q 3225 1125 3225 1434 
Q 3225 1738 3044 1889 
Q 2863 2041 2497 2041 
L 1791 2041 
L 1791 819 
L 2497 819 
z
M 3616 2497 
Q 4003 2384 4215 2081 
Q 4428 1778 4428 1338 
Q 4428 663 3972 331 
Q 3516 0 2584 0 
L 588 0 
L 588 4666 
L 2394 4666 
Q 3366 4666 3802 4372 
Q 4238 4078 4238 3431 
Q 4238 3091 4078 2852 
Q 3919 2613 3616 2497 
z
" transform="scale(0.015625)"/>
       <path id="DejaVuSans-Bold-2f" d="M 1644 4666 
L 2338 4666 
L 691 -594 
L 0 -594 
L 1644 4666 
z
" transform="scale(0.015625)"/>
       <path id="DejaVuSans-Bold-29" d="M 513 -844 
Q 913 -100 1113 609 
Q 1313 1319 1313 2009 
Q 1313 2700 1113 3408 
Q 913 4116 513 4856 
L 1441 4856 
Q 1916 4091 2145 3389 
Q 2375 2688 2375 2003 
Q 2375 1319 2147 623 
Q 1919 -72 1441 -844 
L 513 -844 
z
" transform="scale(0.015625)"/>
      </defs>
      <use xlink:href="#DejaVuSans-Bold-54" transform="translate(0 0.015625)"/>
      <use xlink:href="#DejaVuSans-Bold-68" transform="translate(68.212891 0.015625)"/>
      <use xlink:href="#DejaVuSans-Bold-72" transform="translate(139.404297 0.015625)"/>
      <use xlink:href="#DejaVuSans-Bold-6f" transform="translate(188.720703 0.015625)"/>
      <use xlink:href="#DejaVuSans-Bold-75" transform="translate(257.421875 0.015625)"/>
      <use xlink:href="#DejaVuSans-Bold-67" transform="translate(328.613281 0.015625)"/>
      <use xlink:href="#DejaVuSans-Bold-68" transform="translate(400.195312 0.015625)"/>
      <use xlink:href="#DejaVuSans-Bold-70" transform="translate(471.386719 0.015625)"/>
      <use xlink:href="#DejaVuSans-Bold-75" transform="translate(542.96875 0.015625)"/>
      <use xlink:href="#DejaVuSans-Bold-74" transform="translate(614.160156 0.015625)"/>
      <use xlink:href="#DejaVuSans-Bold-20" transform="translate(661.962891 0.015625)"/>
      <use xlink:href="#DejaVuSans-Bold-28" transform="translate(696.777344 0.015625)"/>
      <use xlink:href="#DejaVuSans-Bold-4b" transform="translate(742.480469 0.015625)"/>
      <use xlink:href="#DejaVuSans-Bold-42" transform="translate(819.970703 0.015625)"/>
      <use xlink:href="#DejaVuSans-Bold-2f" transform="translate(896.191406 0.015625)"/>
      <use xlink:href="#DejaVuSans-Bold-6d" transform="translate(932.714844 0.015625)"/>
      <use xlink:href="#DejaVuSans-Bold-69" transform="translate(1036.914062 0.015625)"/>
      <use xlink:href="#DejaVuSans-Bold-6e" transform="translate(1071.191406 0.015625)"/>
      <use xlink:href="#DejaVuSans-Bold-29" transform="translate(1142.382812 0.015625)"/>
      <use xlink:href="#DejaVuSans-Bold-20" transform="translate(1188.085938 0.015625)"/>
      <use xlink:href="#DejaVuSans-2191" transform="translate(1242.382812 0.015625)"/>
     </g>
    </g>
   </g>
   <g id="patch_3">
    <path d="M 76.41 505.478594 
L 76.41 6.838594 
" style="fill: none; stroke: #000000; stroke-width: 0.8; stroke-linejoin: miter; stroke-linecap: square"/>
   </g>
   <g id="patch_4">
    <path d="M 683.245 505.478594 
L 683.245 6.838594 
" style="fill: none; stroke: #000000; stroke-width: 0.8; stroke-linejoin: miter; stroke-linecap: square"/>
   </g>
   <g id="patch_5">
    <path d="M 76.41 505.478594 
L 683.245 505.478594 
" style="fill: none; stroke: #000000; stroke-width: 0.8; stroke-linejoin: miter; stroke-linecap: square"/>
   </g>
   <g id="patch_6">
    <path d="M 76.41 6.838594 
L 683.245 6.838594 
" style="fill: none; stroke: #000000; stroke-width: 0.8; stroke-linejoin: miter; stroke-linecap: square"/>
   </g>
   <g id="text_17">
    <!-- DZip -->
    <g transform="translate(127.921294 441.013831) scale(0.18 -0.18)">
     <defs>
      <path id="DejaVuSans-44" d="M 1259 4147 
L 1259 519 
L 2022 519 
Q 2988 519 3436 956 
Q 3884 1394 3884 2338 
Q 3884 3275 3436 3711 
Q 2988 4147 2022 4147 
L 1259 4147 
z
M 628 4666 
L 1925 4666 
Q 3281 4666 3915 4102 
Q 4550 3538 4550 2338 
Q 4550 1131 3912 565 
Q 3275 0 1925 0 
L 628 0 
L 628 4666 
z
" transform="scale(0.015625)"/>
      <path id="DejaVuSans-5a" d="M 359 4666 
L 4025 4666 
L 4025 4184 
L 1075 531 
L 4097 531 
L 4097 0 
L 288 0 
L 288 481 
L 3238 4134 
L 359 4134 
L 359 4666 
z
" transform="scale(0.015625)"/>
      <path id="DejaVuSans-69" d="M 603 3500 
L 1178 3500 
L 1178 0 
L 603 0 
L 603 3500 
z
M 603 4863 
L 1178 4863 
L 1178 4134 
L 603 4134 
L 603 4863 
z
" transform="scale(0.015625)"/>
      <path id="DejaVuSans-70" d="M 1159 525 
L 1159 -1331 
L 581 -1331 
L 581 3500 
L 1159 3500 
L 1159 2969 
Q 1341 3281 1617 3432 
Q 1894 3584 2278 3584 
Q 2916 3584 3314 3078 
Q 3713 2572 3713 1747 
Q 3713 922 3314 415 
Q 2916 -91 2278 -91 
Q 1894 -91 1617 61 
Q 1341 213 1159 525 
z
M 3116 1747 
Q 3116 2381 2855 2742 
Q 2594 3103 2138 3103 
Q 1681 3103 1420 2742 
Q 1159 2381 1159 1747 
Q 1159 1113 1420 752 
Q 1681 391 2138 391 
Q 2594 391 2855 752 
Q 3116 1113 3116 1747 
z
" transform="scale(0.015625)"/>
     </defs>
     <use xlink:href="#DejaVuSans-44"/>
     <use xlink:href="#DejaVuSans-5a" transform="translate(77.001953 0)"/>
     <use xlink:href="#DejaVuSans-69" transform="translate(145.507812 0)"/>
     <use xlink:href="#DejaVuSans-70" transform="translate(173.291016 0)"/>
    </g>
    <!-- (DCC'21) -->
    <g transform="translate(108.782231 461.169894) scale(0.18 -0.18)">
     <defs>
      <path id="DejaVuSans-28" d="M 1984 4856 
Q 1566 4138 1362 3434 
Q 1159 2731 1159 2009 
Q 1159 1288 1364 580 
Q 1569 -128 1984 -844 
L 1484 -844 
Q 1016 -109 783 600 
Q 550 1309 550 2009 
Q 550 2706 781 3412 
Q 1013 4119 1484 4856 
L 1984 4856 
z
" transform="scale(0.015625)"/>
      <path id="DejaVuSans-43" d="M 4122 4306 
L 4122 3641 
Q 3803 3938 3442 4084 
Q 3081 4231 2675 4231 
Q 1875 4231 1450 3742 
Q 1025 3253 1025 2328 
Q 1025 1406 1450 917 
Q 1875 428 2675 428 
Q 3081 428 3442 575 
Q 3803 722 4122 1019 
L 4122 359 
Q 3791 134 3420 21 
Q 3050 -91 2638 -91 
Q 1578 -91 968 557 
Q 359 1206 359 2328 
Q 359 3453 968 4101 
Q 1578 4750 2638 4750 
Q 3056 4750 3426 4639 
Q 3797 4528 4122 4306 
z
" transform="scale(0.015625)"/>
      <path id="DejaVuSans-27" d="M 1147 4666 
L 1147 2931 
L 616 2931 
L 616 4666 
L 1147 4666 
z
" transform="scale(0.015625)"/>
      <path id="DejaVuSans-29" d="M 513 4856 
L 1013 4856 
Q 1481 4119 1714 3412 
Q 1947 2706 1947 2009 
Q 1947 1309 1714 600 
Q 1481 -109 1013 -844 
L 513 -844 
Q 928 -128 1133 580 
Q 1338 1288 1338 2009 
Q 1338 2731 1133 3434 
Q 928 4138 513 4856 
z
" transform="scale(0.015625)"/>
     </defs>
     <use xlink:href="#DejaVuSans-28"/>
     <use xlink:href="#DejaVuSans-44" transform="translate(39.013672 0)"/>
     <use xlink:href="#DejaVuSans-43" transform="translate(116.015625 0)"/>
     <use xlink:href="#DejaVuSans-43" transform="translate(185.839844 0)"/>
     <use xlink:href="#DejaVuSans-27" transform="translate(255.664062 0)"/>
     <use xlink:href="#DejaVuSans-32" transform="translate(283.154297 0)"/>
     <use xlink:href="#DejaVuSans-31" transform="translate(346.777344 0)"/>
     <use xlink:href="#DejaVuSans-29" transform="translate(410.400391 0)"/>
    </g>
   </g>
   <g id="text_18">
    <!-- TRACE -->
    <g transform="translate(93.389034 293.731451) scale(0.18 -0.18)">
     <defs>
      <path id="DejaVuSans-54" d="M -19 4666 
L 3928 4666 
L 3928 4134 
L 2272 4134 
L 2272 0 
L 1638 0 
L 1638 4134 
L -19 4134 
L -19 4666 
z
" transform="scale(0.015625)"/>
      <path id="DejaVuSans-52" d="M 2841 2188 
Q 3044 2119 3236 1894 
Q 3428 1669 3622 1275 
L 4263 0 
L 3584 0 
L 2988 1197 
Q 2756 1666 2539 1819 
Q 2322 1972 1947 1972 
L 1259 1972 
L 1259 0 
L 628 0 
L 628 4666 
L 2053 4666 
Q 2853 4666 3247 4331 
Q 3641 3997 3641 3322 
Q 3641 2881 3436 2590 
Q 3231 2300 2841 2188 
z
M 1259 4147 
L 1259 2491 
L 2053 2491 
Q 2509 2491 2742 2702 
Q 2975 2913 2975 3322 
Q 2975 3731 2742 3939 
Q 2509 4147 2053 4147 
L 1259 4147 
z
" transform="scale(0.015625)"/>
      <path id="DejaVuSans-41" d="M 2188 4044 
L 1331 1722 
L 3047 1722 
L 2188 4044 
z
M 1831 4666 
L 2547 4666 
L 4325 0 
L 3669 0 
L 3244 1197 
L 1141 1197 
L 716 0 
L 50 0 
L 1831 4666 
z
" transform="scale(0.015625)"/>
      <path id="DejaVuSans-45" d="M 628 4666 
L 3578 4666 
L 3578 4134 
L 1259 4134 
L 1259 2753 
L 3481 2753 
L 3481 2222 
L 1259 2222 
L 1259 531 
L 3634 531 
L 3634 0 
L 628 0 
L 628 4666 
z
" transform="scale(0.015625)"/>
     </defs>
     <use xlink:href="#DejaVuSans-54"/>
     <use xlink:href="#DejaVuSans-52" transform="translate(61.083984 0)"/>
     <use xlink:href="#DejaVuSans-41" transform="translate(126.566406 0)"/>
     <use xlink:href="#DejaVuSans-43" transform="translate(193.224609 0)"/>
     <use xlink:href="#DejaVuSans-45" transform="translate(263.048828 0)"/>
    </g>
    <!-- (WWW'22) -->
    <g transform="translate(75.104971 313.887514) scale(0.18 -0.18)">
     <defs>
      <path id="DejaVuSans-57" d="M 213 4666 
L 850 4666 
L 1831 722 
L 2809 4666 
L 3519 4666 
L 4500 722 
L 5478 4666 
L 6119 4666 
L 4947 0 
L 4153 0 
L 3169 4050 
L 2175 0 
L 1381 0 
L 213 4666 
z
" transform="scale(0.015625)"/>
     </defs>
     <use xlink:href="#DejaVuSans-28"/>
     <use xlink:href="#DejaVuSans-57" transform="translate(39.013672 0)"/>
     <use xlink:href="#DejaVuSans-57" transform="translate(137.890625 0)"/>
     <use xlink:href="#DejaVuSans-57" transform="translate(236.767578 0)"/>
     <use xlink:href="#DejaVuSans-27" transform="translate(335.644531 0)"/>
     <use xlink:href="#DejaVuSans-32" transform="translate(363.134766 0)"/>
     <use xlink:href="#DejaVuSans-32" transform="translate(426.757812 0)"/>
     <use xlink:href="#DejaVuSans-29" transform="translate(490.380859 0)"/>
    </g>
   </g>
   <g id="text_19">
    <!-- PAC -->
    <g transform="translate(256.770647 274.159831) scale(0.18 -0.18)">
     <defs>
      <path id="DejaVuSans-50" d="M 1259 4147 
L 1259 2394 
L 2053 2394 
Q 2494 2394 2734 2622 
Q 2975 2850 2975 3272 
Q 2975 3691 2734 3919 
Q 2494 4147 2053 4147 
L 1259 4147 
z
M 628 4666 
L 2053 4666 
Q 2838 4666 3239 4311 
Q 3641 3956 3641 3272 
Q 3641 2581 3239 2228 
Q 2838 1875 2053 1875 
L 1259 1875 
L 1259 0 
L 628 0 
L 628 4666 
z
" transform="scale(0.015625)"/>
     </defs>
     <use xlink:href="#DejaVuSans-50"/>
     <use xlink:href="#DejaVuSans-41" transform="translate(53.927734 0)"/>
     <use xlink:href="#DejaVuSans-43" transform="translate(120.585938 0)"/>
    </g>
    <!-- (DAC'23) -->
    <g transform="translate(233.902209 294.315894) scale(0.18 -0.18)">
     <use xlink:href="#DejaVuSans-28"/>
     <use xlink:href="#DejaVuSans-44" transform="translate(39.013672 0)"/>
     <use xlink:href="#DejaVuSans-41" transform="translate(114.265625 0)"/>
     <use xlink:href="#DejaVuSans-43" transform="translate(180.923828 0)"/>
     <use xlink:href="#DejaVuSans-27" transform="translate(250.748047 0)"/>
     <use xlink:href="#DejaVuSans-32" transform="translate(278.238281 0)"/>
     <use xlink:href="#DejaVuSans-33" transform="translate(341.861328 0)"/>
     <use xlink:href="#DejaVuSans-29" transform="translate(405.484375 0)"/>
    </g>
   </g>
   <g id="text_20">
    <!-- MSDZip -->
    <g transform="translate(397.999833 291.172511) scale(0.18 -0.18)">
     <defs>
      <path id="DejaVuSans-4d" d="M 628 4666 
L 1569 4666 
L 2759 1491 
L 3956 4666 
L 4897 4666 
L 4897 0 
L 4281 0 
L 4281 4097 
L 3078 897 
L 2444 897 
L 1241 4097 
L 1241 0 
L 628 0 
L 628 4666 
z
" transform="scale(0.015625)"/>
      <path id="DejaVuSans-53" d="M 3425 4513 
L 3425 3897 
Q 3066 4069 2747 4153 
Q 2428 4238 2131 4238 
Q 1616 4238 1336 4038 
Q 1056 3838 1056 3469 
Q 1056 3159 1242 3001 
Q 1428 2844 1947 2747 
L 2328 2669 
Q 3034 2534 3370 2195 
Q 3706 1856 3706 1288 
Q 3706 609 3251 259 
Q 2797 -91 1919 -91 
Q 1588 -91 1214 -16 
Q 841 59 441 206 
L 441 856 
Q 825 641 1194 531 
Q 1563 422 1919 422 
Q 2459 422 2753 634 
Q 3047 847 3047 1241 
Q 3047 1584 2836 1778 
Q 2625 1972 2144 2069 
L 1759 2144 
Q 1053 2284 737 2584 
Q 422 2884 422 3419 
Q 422 4038 858 4394 
Q 1294 4750 2059 4750 
Q 2388 4750 2728 4690 
Q 3069 4631 3425 4513 
z
" transform="scale(0.015625)"/>
     </defs>
     <use xlink:href="#DejaVuSans-4d"/>
     <use xlink:href="#DejaVuSans-53" transform="translate(86.279297 0)"/>
     <use xlink:href="#DejaVuSans-44" transform="translate(149.755859 0)"/>
     <use xlink:href="#DejaVuSans-5a" transform="translate(226.757812 0)"/>
     <use xlink:href="#DejaVuSans-69" transform="translate(295.263672 0)"/>
     <use xlink:href="#DejaVuSans-70" transform="translate(323.046875 0)"/>
    </g>
    <!-- (WWW'25) -->
    <g transform="translate(385.142489 311.328574) scale(0.18 -0.18)">
     <use xlink:href="#DejaVuSans-28"/>
     <use xlink:href="#DejaVuSans-57" transform="translate(39.013672 0)"/>
     <use xlink:href="#DejaVuSans-57" transform="translate(137.890625 0)"/>
     <use xlink:href="#DejaVuSans-57" transform="translate(236.767578 0)"/>
     <use xlink:href="#DejaVuSans-27" transform="translate(335.644531 0)"/>
     <use xlink:href="#DejaVuSans-32" transform="translate(363.134766 0)"/>
     <use xlink:href="#DejaVuSans-35" transform="translate(426.757812 0)"/>
     <use xlink:href="#DejaVuSans-29" transform="translate(490.380859 0)"/>
    </g>
   </g>
   <g id="text_21">
    <!-- SEP -->
    <g transform="translate(446.853876 380.633071) scale(0.18 -0.18)">
     <use xlink:href="#DejaVuSans-53"/>
     <use xlink:href="#DejaVuSans-45" transform="translate(63.476562 0)"/>
     <use xlink:href="#DejaVuSans-50" transform="translate(126.660156 0)"/>
    </g>
    <!-- (IJCAI'25) -->
    <g transform="translate(422.326064 400.789134) scale(0.18 -0.18)">
     <defs>
      <path id="DejaVuSans-49" d="M 628 4666 
L 1259 4666 
L 1259 0 
L 628 0 
L 628 4666 
z
" transform="scale(0.015625)"/>
      <path id="DejaVuSans-4a" d="M 628 4666 
L 1259 4666 
L 1259 325 
Q 1259 -519 939 -900 
Q 619 -1281 -91 -1281 
L -331 -1281 
L -331 -750 
L -134 -750 
Q 284 -750 456 -515 
Q 628 -281 628 325 
L 628 4666 
z
" transform="scale(0.015625)"/>
     </defs>
     <use xlink:href="#DejaVuSans-28"/>
     <use xlink:href="#DejaVuSans-49" transform="translate(39.013672 0)"/>
     <use xlink:href="#DejaVuSans-4a" transform="translate(68.505859 0)"/>
     <use xlink:href="#DejaVuSans-43" transform="translate(97.998047 0)"/>
     <use xlink:href="#DejaVuSans-41" transform="translate(167.822266 0)"/>
     <use xlink:href="#DejaVuSans-49" transform="translate(236.230469 0)"/>
     <use xlink:href="#DejaVuSans-27" transform="translate(265.722656 0)"/>
     <use xlink:href="#DejaVuSans-32" transform="translate(293.212891 0)"/>
     <use xlink:href="#DejaVuSans-35" transform="translate(356.835938 0)"/>
     <use xlink:href="#DejaVuSans-29" transform="translate(420.458984 0)"/>
    </g>
   </g>
   <g id="text_22">
    <!-- EDPC -->
    <g transform="translate(512.173139 166.204271) scale(0.18 -0.18)">
     <use xlink:href="#DejaVuSans-45"/>
     <use xlink:href="#DejaVuSans-44" transform="translate(63.183594 0)"/>
     <use xlink:href="#DejaVuSans-50" transform="translate(140.185547 0)"/>
     <use xlink:href="#DejaVuSans-43" transform="translate(200.488281 0)"/>
    </g>
    <!-- (MM'25) -->
    <g transform="translate(500.021732 186.360334) scale(0.18 -0.18)">
     <use xlink:href="#DejaVuSans-28"/>
     <use xlink:href="#DejaVuSans-4d" transform="translate(39.013672 0)"/>
     <use xlink:href="#DejaVuSans-4d" transform="translate(125.292969 0)"/>
     <use xlink:href="#DejaVuSans-27" transform="translate(211.572266 0)"/>
     <use xlink:href="#DejaVuSans-32" transform="translate(239.0625 0)"/>
     <use xlink:href="#DejaVuSans-35" transform="translate(302.685547 0)"/>
     <use xlink:href="#DejaVuSans-29" transform="translate(366.308594 0)"/>
    </g>
   </g>
   <g id="text_23">
    <!-- FADE -->
    <g transform="translate(564.866933 55.755511) scale(0.18 -0.18)">
     <defs>
      <path id="DejaVuSans-Bold-46" d="M 588 4666 
L 3834 4666 
L 3834 3756 
L 1791 3756 
L 1791 2888 
L 3713 2888 
L 3713 1978 
L 1791 1978 
L 1791 0 
L 588 0 
L 588 4666 
z
" transform="scale(0.015625)"/>
      <path id="DejaVuSans-Bold-44" d="M 1791 3756 
L 1791 909 
L 2222 909 
Q 2959 909 3348 1275 
Q 3738 1641 3738 2338 
Q 3738 3031 3350 3393 
Q 2963 3756 2222 3756 
L 1791 3756 
z
M 588 4666 
L 1856 4666 
Q 2919 4666 3439 4514 
Q 3959 4363 4331 4000 
Q 4659 3684 4818 3271 
Q 4978 2859 4978 2338 
Q 4978 1809 4818 1395 
Q 4659 981 4331 666 
Q 3956 303 3431 151 
Q 2906 0 1856 0 
L 588 0 
L 588 4666 
z
" transform="scale(0.015625)"/>
      <path id="DejaVuSans-Bold-45" d="M 588 4666 
L 3834 4666 
L 3834 3756 
L 1791 3756 
L 1791 2888 
L 3713 2888 
L 3713 1978 
L 1791 1978 
L 1791 909 
L 3903 909 
L 3903 0 
L 588 0 
L 588 4666 
z
" transform="scale(0.015625)"/>
     </defs>
     <use xlink:href="#DejaVuSans-Bold-46"/>
     <use xlink:href="#DejaVuSans-Bold-41" transform="translate(56.810547 0)"/>
     <use xlink:href="#DejaVuSans-Bold-44" transform="translate(134.203125 0)"/>
     <use xlink:href="#DejaVuSans-Bold-45" transform="translate(217.210938 0)"/>
    </g>
    <!-- (Ours) -->
    <g transform="translate(558.48537 75.911574) scale(0.18 -0.18)">
     <defs>
      <path id="DejaVuSans-Bold-4f" d="M 2719 3878 
Q 2169 3878 1866 3472 
Q 1563 3066 1563 2328 
Q 1563 1594 1866 1187 
Q 2169 781 2719 781 
Q 3272 781 3575 1187 
Q 3878 1594 3878 2328 
Q 3878 3066 3575 3472 
Q 3272 3878 2719 3878 
z
M 2719 4750 
Q 3844 4750 4481 4106 
Q 5119 3463 5119 2328 
Q 5119 1197 4481 553 
Q 3844 -91 2719 -91 
Q 1597 -91 958 553 
Q 319 1197 319 2328 
Q 319 3463 958 4106 
Q 1597 4750 2719 4750 
z
" transform="scale(0.015625)"/>
     </defs>
     <use xlink:href="#DejaVuSans-Bold-28"/>
     <use xlink:href="#DejaVuSans-Bold-4f" transform="translate(45.703125 0)"/>
     <use xlink:href="#DejaVuSans-Bold-75" transform="translate(130.712891 0)"/>
     <use xlink:href="#DejaVuSans-Bold-72" transform="translate(201.904297 0)"/>
     <use xlink:href="#DejaVuSans-Bold-73" transform="translate(251.220703 0)"/>
     <use xlink:href="#DejaVuSans-Bold-29" transform="translate(310.742188 0)"/>
    </g>
   </g>
   <g id="legend_1">
    <g id="patch_7">
     <path d="M 509.966562 502.678594 
L 677.645 502.678594 
Q 680.445 502.678594 680.445 499.878594 
L 680.445 332.232969 
Q 680.445 329.432969 677.645 329.432969 
L 509.966562 329.432969 
Q 507.166562 329.432969 507.166562 332.232969 
L 507.166562 499.878594 
Q 507.166562 502.678594 509.966562 502.678594 
z
" style="fill: #ffffff; opacity: 0.9; stroke: #cccccc; stroke-linejoin: miter"/>
    </g>
    <g id="PathCollection_1">
     <defs>
      <path id="m94f41689bc" d="M -6.708204 6.708204 
L 6.708204 6.708204 
L 6.708204 -6.708204 
L -6.708204 -6.708204 
z
"/>
     </defs>
     <g>
      <use xlink:href="#m94f41689bc" x="526.766562" y="341.995781" style="fill: #1f77b4; fill-opacity: 0.7"/>
     </g>
    </g>
    <g id="text_24">
     <!-- DZip (DCC'21) -->
     <g transform="translate(542.166562 345.670781) scale(0.14 -0.14)">
      <defs>
       <path id="DejaVuSans-20" transform="scale(0.015625)"/>
      </defs>
      <use xlink:href="#DejaVuSans-44"/>
      <use xlink:href="#DejaVuSans-5a" transform="translate(77.001953 0)"/>
      <use xlink:href="#DejaVuSans-69" transform="translate(145.507812 0)"/>
      <use xlink:href="#DejaVuSans-70" transform="translate(173.291016 0)"/>
      <use xlink:href="#DejaVuSans-20" transform="translate(236.767578 0)"/>
      <use xlink:href="#DejaVuSans-28" transform="translate(268.554688 0)"/>
      <use xlink:href="#DejaVuSans-44" transform="translate(307.568359 0)"/>
      <use xlink:href="#DejaVuSans-43" transform="translate(384.570312 0)"/>
      <use xlink:href="#DejaVuSans-43" transform="translate(454.394531 0)"/>
      <use xlink:href="#DejaVuSans-27" transform="translate(524.21875 0)"/>
      <use xlink:href="#DejaVuSans-32" transform="translate(551.708984 0)"/>
      <use xlink:href="#DejaVuSans-31" transform="translate(615.332031 0)"/>
      <use xlink:href="#DejaVuSans-29" transform="translate(678.955078 0)"/>
     </g>
    </g>
    <g id="PathCollection_2">
     <defs>
      <path id="m2fbfcfeeb3" d="M -0 6.708204 
L 6.708204 -6.708204 
L -6.708204 -6.708204 
z
"/>
     </defs>
     <g>
      <use xlink:href="#m2fbfcfeeb3" x="526.766562" y="366.745156" style="fill: #ff7f0e; fill-opacity: 0.7"/>
     </g>
    </g>
    <g id="text_25">
     <!-- TRACE (WWW'22) -->
     <g transform="translate(542.166562 370.420156) scale(0.14 -0.14)">
      <use xlink:href="#DejaVuSans-54"/>
      <use xlink:href="#DejaVuSans-52" transform="translate(61.083984 0)"/>
      <use xlink:href="#DejaVuSans-41" transform="translate(126.566406 0)"/>
      <use xlink:href="#DejaVuSans-43" transform="translate(193.224609 0)"/>
      <use xlink:href="#DejaVuSans-45" transform="translate(263.048828 0)"/>
      <use xlink:href="#DejaVuSans-20" transform="translate(326.232422 0)"/>
      <use xlink:href="#DejaVuSans-28" transform="translate(358.019531 0)"/>
      <use xlink:href="#DejaVuSans-57" transform="translate(397.033203 0)"/>
      <use xlink:href="#DejaVuSans-57" transform="translate(495.910156 0)"/>
      <use xlink:href="#DejaVuSans-57" transform="translate(594.787109 0)"/>
      <use xlink:href="#DejaVuSans-27" transform="translate(693.664062 0)"/>
      <use xlink:href="#DejaVuSans-32" transform="translate(721.154297 0)"/>
      <use xlink:href="#DejaVuSans-32" transform="translate(784.777344 0)"/>
      <use xlink:href="#DejaVuSans-29" transform="translate(848.400391 0)"/>
     </g>
    </g>
    <g id="PathCollection_3">
     <defs>
      <path id="m879c4f2d9c" d="M 0 -7.348469 
L -6.363961 -3.674235 
L -6.363961 3.674235 
L -0 7.348469 
L 6.363961 3.674235 
L 6.363961 -3.674235 
z
"/>
     </defs>
     <g>
      <use xlink:href="#m879c4f2d9c" x="526.766562" y="391.494531" style="fill: #d62728; fill-opacity: 0.7"/>
     </g>
    </g>
    <g id="text_26">
     <!-- PAC (DAC'23) -->
     <g transform="translate(542.166562 395.169531) scale(0.14 -0.14)">
      <use xlink:href="#DejaVuSans-50"/>
      <use xlink:href="#DejaVuSans-41" transform="translate(53.927734 0)"/>
      <use xlink:href="#DejaVuSans-43" transform="translate(120.585938 0)"/>
      <use xlink:href="#DejaVuSans-20" transform="translate(190.410156 0)"/>
      <use xlink:href="#DejaVuSans-28" transform="translate(222.197266 0)"/>
      <use xlink:href="#DejaVuSans-44" transform="translate(261.210938 0)"/>
      <use xlink:href="#DejaVuSans-41" transform="translate(336.462891 0)"/>
      <use xlink:href="#DejaVuSans-43" transform="translate(403.121094 0)"/>
      <use xlink:href="#DejaVuSans-27" transform="translate(472.945312 0)"/>
      <use xlink:href="#DejaVuSans-32" transform="translate(500.435547 0)"/>
      <use xlink:href="#DejaVuSans-33" transform="translate(564.058594 0)"/>
      <use xlink:href="#DejaVuSans-29" transform="translate(627.681641 0)"/>
     </g>
    </g>
    <g id="PathCollection_4">
     <defs>
      <path id="m50dd5d1ad9" d="M 0 -7.348469 
L -6.98881 -2.270802 
L -4.319322 5.945036 
L 4.319322 5.945036 
L 6.98881 -2.270802 
z
"/>
     </defs>
     <g>
      <use xlink:href="#m50dd5d1ad9" x="526.766562" y="416.243906" style="fill: #8c564b; fill-opacity: 0.7"/>
     </g>
    </g>
    <g id="text_27">
     <!-- MSDZip (WWW'25) -->
     <g transform="translate(542.166562 419.918906) scale(0.14 -0.14)">
      <use xlink:href="#DejaVuSans-4d"/>
      <use xlink:href="#DejaVuSans-53" transform="translate(86.279297 0)"/>
      <use xlink:href="#DejaVuSans-44" transform="translate(149.755859 0)"/>
      <use xlink:href="#DejaVuSans-5a" transform="translate(226.757812 0)"/>
      <use xlink:href="#DejaVuSans-69" transform="translate(295.263672 0)"/>
      <use xlink:href="#DejaVuSans-70" transform="translate(323.046875 0)"/>
      <use xlink:href="#DejaVuSans-20" transform="translate(386.523438 0)"/>
      <use xlink:href="#DejaVuSans-28" transform="translate(418.310547 0)"/>
      <use xlink:href="#DejaVuSans-57" transform="translate(457.324219 0)"/>
      <use xlink:href="#DejaVuSans-57" transform="translate(556.201172 0)"/>
      <use xlink:href="#DejaVuSans-57" transform="translate(655.078125 0)"/>
      <use xlink:href="#DejaVuSans-27" transform="translate(753.955078 0)"/>
      <use xlink:href="#DejaVuSans-32" transform="translate(781.445312 0)"/>
      <use xlink:href="#DejaVuSans-35" transform="translate(845.068359 0)"/>
      <use xlink:href="#DejaVuSans-29" transform="translate(908.691406 0)"/>
     </g>
    </g>
    <g id="PathCollection_5">
     <defs>
      <path id="m252bedbc07" d="M -0 8.485281 
L 8.485281 0 
L 0 -8.485281 
L -8.485281 -0 
z
"/>
     </defs>
     <g>
      <use xlink:href="#m252bedbc07" x="526.766562" y="440.993281" style="fill: #e377c2; fill-opacity: 0.7"/>
     </g>
    </g>
    <g id="text_28">
     <!-- SEP (IJCAI'25) -->
     <g transform="translate(542.166562 444.668281) scale(0.14 -0.14)">
      <use xlink:href="#DejaVuSans-53"/>
      <use xlink:href="#DejaVuSans-45" transform="translate(63.476562 0)"/>
      <use xlink:href="#DejaVuSans-50" transform="translate(126.660156 0)"/>
      <use xlink:href="#DejaVuSans-20" transform="translate(186.962891 0)"/>
      <use xlink:href="#DejaVuSans-28" transform="translate(218.75 0)"/>
      <use xlink:href="#DejaVuSans-49" transform="translate(257.763672 0)"/>
      <use xlink:href="#DejaVuSans-4a" transform="translate(287.255859 0)"/>
      <use xlink:href="#DejaVuSans-43" transform="translate(316.748047 0)"/>
      <use xlink:href="#DejaVuSans-41" transform="translate(386.572266 0)"/>
      <use xlink:href="#DejaVuSans-49" transform="translate(454.980469 0)"/>
      <use xlink:href="#DejaVuSans-27" transform="translate(484.472656 0)"/>
      <use xlink:href="#DejaVuSans-32" transform="translate(511.962891 0)"/>
      <use xlink:href="#DejaVuSans-35" transform="translate(575.585938 0)"/>
      <use xlink:href="#DejaVuSans-29" transform="translate(639.208984 0)"/>
     </g>
    </g>
    <g id="PathCollection_6">
     <defs>
      <path id="mbdc9a9b79a" d="M 0 -6.708204 
L -6.708204 6.708204 
L 6.708204 6.708204 
z
"/>
     </defs>
     <g>
      <use xlink:href="#mbdc9a9b79a" x="526.766562" y="465.742656" style="fill: #bcbd22; fill-opacity: 0.7"/>
     </g>
    </g>
    <g id="text_29">
     <!-- EDPC (MM'25) -->
     <g transform="translate(542.166562 469.417656) scale(0.14 -0.14)">
      <use xlink:href="#DejaVuSans-45"/>
      <use xlink:href="#DejaVuSans-44" transform="translate(63.183594 0)"/>
      <use xlink:href="#DejaVuSans-50" transform="translate(140.185547 0)"/>
      <use xlink:href="#DejaVuSans-43" transform="translate(200.488281 0)"/>
      <use xlink:href="#DejaVuSans-20" transform="translate(270.3125 0)"/>
      <use xlink:href="#DejaVuSans-28" transform="translate(302.099609 0)"/>
      <use xlink:href="#DejaVuSans-4d" transform="translate(341.113281 0)"/>
      <use xlink:href="#DejaVuSans-4d" transform="translate(427.392578 0)"/>
      <use xlink:href="#DejaVuSans-27" transform="translate(513.671875 0)"/>
      <use xlink:href="#DejaVuSans-32" transform="translate(541.162109 0)"/>
      <use xlink:href="#DejaVuSans-35" transform="translate(604.785156 0)"/>
      <use xlink:href="#DejaVuSans-29" transform="translate(668.408203 0)"/>
     </g>
    </g>
    <g id="PathCollection_7">
     <defs>
      <path id="m0d044de893" d="M 0 -10.392305 
L -2.333218 -3.211399 
L -9.883669 -3.211399 
L -3.775226 1.226645 
L -6.108444 8.407551 
L -0 3.969507 
L 6.108444 8.407551 
L 3.775226 1.226645 
L 9.883669 -3.211399 
L 2.333218 -3.211399 
z
"/>
     </defs>
     <g>
      <use xlink:href="#m0d044de893" x="526.766562" y="490.492031" style="fill: #d62728; fill-opacity: 0.9"/>
     </g>
    </g>
    <g id="text_30">
     <!-- FADE (Ours) -->
     <g transform="translate(542.166562 494.167031) scale(0.14 -0.14)">
      <defs>
       <path id="DejaVuSans-46" d="M 628 4666 
L 3309 4666 
L 3309 4134 
L 1259 4134 
L 1259 2759 
L 3109 2759 
L 3109 2228 
L 1259 2228 
L 1259 0 
L 628 0 
L 628 4666 
z
" transform="scale(0.015625)"/>
       <path id="DejaVuSans-4f" d="M 2522 4238 
Q 1834 4238 1429 3725 
Q 1025 3213 1025 2328 
Q 1025 1447 1429 934 
Q 1834 422 2522 422 
Q 3209 422 3611 934 
Q 4013 1447 4013 2328 
Q 4013 3213 3611 3725 
Q 3209 4238 2522 4238 
z
M 2522 4750 
Q 3503 4750 4090 4092 
Q 4678 3434 4678 2328 
Q 4678 1225 4090 567 
Q 3503 -91 2522 -91 
Q 1538 -91 948 565 
Q 359 1222 359 2328 
Q 359 3434 948 4092 
Q 1538 4750 2522 4750 
z
" transform="scale(0.015625)"/>
       <path id="DejaVuSans-75" d="M 544 1381 
L 544 3500 
L 1119 3500 
L 1119 1403 
Q 1119 906 1312 657 
Q 1506 409 1894 409 
Q 2359 409 2629 706 
Q 2900 1003 2900 1516 
L 2900 3500 
L 3475 3500 
L 3475 0 
L 2900 0 
L 2900 538 
Q 2691 219 2414 64 
Q 2138 -91 1772 -91 
Q 1169 -91 856 284 
Q 544 659 544 1381 
z
M 1991 3584 
L 1991 3584 
z
" transform="scale(0.015625)"/>
       <path id="DejaVuSans-72" d="M 2631 2963 
Q 2534 3019 2420 3045 
Q 2306 3072 2169 3072 
Q 1681 3072 1420 2755 
Q 1159 2438 1159 1844 
L 1159 0 
L 581 0 
L 581 3500 
L 1159 3500 
L 1159 2956 
Q 1341 3275 1631 3429 
Q 1922 3584 2338 3584 
Q 2397 3584 2469 3576 
Q 2541 3569 2628 3553 
L 2631 2963 
z
" transform="scale(0.015625)"/>
       <path id="DejaVuSans-73" d="M 2834 3397 
L 2834 2853 
Q 2591 2978 2328 3040 
Q 2066 3103 1784 3103 
Q 1356 3103 1142 2972 
Q 928 2841 928 2578 
Q 928 2378 1081 2264 
Q 1234 2150 1697 2047 
L 1894 2003 
Q 2506 1872 2764 1633 
Q 3022 1394 3022 966 
Q 3022 478 2636 193 
Q 2250 -91 1575 -91 
Q 1294 -91 989 -36 
Q 684 19 347 128 
L 347 722 
Q 666 556 975 473 
Q 1284 391 1588 391 
Q 1994 391 2212 530 
Q 2431 669 2431 922 
Q 2431 1156 2273 1281 
Q 2116 1406 1581 1522 
L 1381 1569 
Q 847 1681 609 1914 
Q 372 2147 372 2553 
Q 372 3047 722 3315 
Q 1072 3584 1716 3584 
Q 2034 3584 2315 3537 
Q 2597 3491 2834 3397 
z
" transform="scale(0.015625)"/>
      </defs>
      <use xlink:href="#DejaVuSans-46"/>
      <use xlink:href="#DejaVuSans-41" transform="translate(48.394531 0)"/>
      <use xlink:href="#DejaVuSans-44" transform="translate(116.802734 0)"/>
      <use xlink:href="#DejaVuSans-45" transform="translate(193.804688 0)"/>
      <use xlink:href="#DejaVuSans-20" transform="translate(256.988281 0)"/>
      <use xlink:href="#DejaVuSans-28" transform="translate(288.775391 0)"/>
      <use xlink:href="#DejaVuSans-4f" transform="translate(327.789062 0)"/>
      <use xlink:href="#DejaVuSans-75" transform="translate(406.5 0)"/>
      <use xlink:href="#DejaVuSans-72" transform="translate(469.878906 0)"/>
      <use xlink:href="#DejaVuSans-73" transform="translate(510.992188 0)"/>
      <use xlink:href="#DejaVuSans-29" transform="translate(563.091797 0)"/>
     </g>
    </g>
   </g>
   <g id="PathCollection_8">
    <defs>
     <path id="m8307dfbcce" d="M -11.18034 11.18034 
L 11.18034 11.18034 
L 11.18034 -11.18034 
L -11.18034 -11.18034 
z
"/>
    </defs>
    <g clip-path="url(#pa5c93a8496)">
     <use xlink:href="#m8307dfbcce" x="149.2302" y="481.169894" style="fill: #1f77b4; fill-opacity: 0.7"/>
    </g>
   </g>
   <g id="PathCollection_9">
    <defs>
     <path id="m65cfd8b24a" d="M -0 11.18034 
L 11.18034 -11.18034 
L -11.18034 -11.18034 
z
"/>
    </defs>
    <g clip-path="url(#pa5c93a8496)">
     <use xlink:href="#m65cfd8b24a" x="122.750127" y="263.887514" style="fill: #ff7f0e; fill-opacity: 0.7"/>
    </g>
   </g>
   <g id="PathCollection_10">
    <defs>
     <path id="m66137ca643" d="M 0 -12.247449 
L -10.606602 -6.123724 
L -10.606602 6.123724 
L -0 12.247449 
L 10.606602 6.123724 
L 10.606602 -6.123724 
z
"/>
    </defs>
    <g clip-path="url(#pa5c93a8496)">
     <use xlink:href="#m66137ca643" x="273.907209" y="244.315894" style="fill: #d62728; fill-opacity: 0.7"/>
    </g>
   </g>
   <g id="PathCollection_11">
    <defs>
     <path id="m70ddb90da1" d="M 0 -12.247449 
L -11.648016 -3.78467 
L -7.19887 9.908394 
L 7.19887 9.908394 
L 11.648016 -3.78467 
z
"/>
    </defs>
    <g clip-path="url(#pa5c93a8496)">
     <use xlink:href="#m70ddb90da1" x="432.787645" y="331.328574" style="fill: #8c564b; fill-opacity: 0.7"/>
    </g>
   </g>
   <g id="PathCollection_12">
    <defs>
     <path id="mc30282d93d" d="M -0 14.142136 
L 14.142136 0 
L 0 -14.142136 
L -14.142136 -0 
z
"/>
    </defs>
    <g clip-path="url(#pa5c93a8496)">
     <use xlink:href="#mc30282d93d" x="463.681064" y="345.789134" style="fill: #e377c2; fill-opacity: 0.7"/>
    </g>
   </g>
   <g id="PathCollection_13">
    <defs>
     <path id="m9d7755e264" d="M 0 -11.18034 
L -11.18034 11.18034 
L 11.18034 11.18034 
z
"/>
    </defs>
    <g clip-path="url(#pa5c93a8496)">
     <use xlink:href="#m9d7755e264" x="536.501264" y="136.360334" style="fill: #bcbd22; fill-opacity: 0.7"/>
    </g>
   </g>
   <g id="line2d_31">
    <path d="M 76.41 505.478594 
" style="fill: none; stroke: #000000; stroke-width: 1.5; stroke-linecap: square"/>
    <defs>
     <path id="mcea69ec7ab" d="M -6 6 
L 6 -6 
M -6 -6 
L 6 6 
" style="stroke: #000000"/>
    </defs>
    <g>
     <use xlink:href="#mcea69ec7ab" x="76.41" y="505.478594" style="stroke: #000000"/>
    </g>
   </g>
   <g id="PathCollection_14">
    <defs>
     <path id="m6db198d90a" d="M 0 -17.320508 
L -3.888696 -5.352331 
L -16.472782 -5.352331 
L -6.292043 2.044409 
L -10.180739 14.012585 
L -0 6.615845 
L 10.180739 14.012585 
L 6.292043 2.044409 
L 16.472782 -5.352331 
L 3.888696 -5.352331 
z
"/>
    </defs>
    <g clip-path="url(#pa5c93a8496)">
     <use xlink:href="#m6db198d90a" x="590.564745" y="25.911574" style="fill: #d62728; fill-opacity: 0.9"/>
    </g>
   </g>
  </g>
 </g>
 <defs>
  <clipPath id="pa5c93a8496">
   <rect x="76.41" y="6.838594" width="606.835" height="498.64"/>
  </clipPath>
 </defs>
</svg>
